<svg width="25" height="24" viewBox="0 0 25 24" fill="none" xmlns="http://www.w3.org/2000/svg">
<path d="M18.375 15.5625C17.707 15.5625 17.0906 15.7969 16.6078 16.1883L11.7516 12.675C11.8329 12.2287 11.8329 11.7713 11.7516 11.325L16.6078 7.81172C17.0906 8.20312 17.707 8.4375 18.375 8.4375C19.9266 8.4375 21.1875 7.17656 21.1875 5.625C21.1875 4.07344 19.9266 2.8125 18.375 2.8125C16.8234 2.8125 15.5625 4.07344 15.5625 5.625C15.5625 5.89687 15.6 6.15703 15.6727 6.40547L11.0602 9.74531C10.3758 8.83828 9.28828 8.25 8.0625 8.25C5.99062 8.25 4.3125 9.92812 4.3125 12C4.3125 14.0719 5.99062 15.75 8.0625 15.75C9.28828 15.75 10.3758 15.1617 11.0602 14.2547L15.6727 17.5945C15.6 17.843 15.5625 18.1055 15.5625 18.375C15.5625 19.9266 16.8234 21.1875 18.375 21.1875C19.9266 21.1875 21.1875 19.9266 21.1875 18.375C21.1875 16.8234 19.9266 15.5625 18.375 15.5625ZM18.375 4.40625C19.0477 4.40625 19.5938 4.95234 19.5938 5.625C19.5938 6.29766 19.0477 6.84375 18.375 6.84375C17.7023 6.84375 17.1562 6.29766 17.1562 5.625C17.1562 4.95234 17.7023 4.40625 18.375 4.40625ZM8.0625 14.0625C6.92578 14.0625 6 13.1367 6 12C6 10.8633 6.92578 9.9375 8.0625 9.9375C9.19922 9.9375 10.125 10.8633 10.125 12C10.125 13.1367 9.19922 14.0625 8.0625 14.0625ZM18.375 19.5938C17.7023 19.5938 17.1562 19.0477 17.1562 18.375C17.1562 17.7023 17.7023 17.1562 18.375 17.1562C19.0477 17.1562 19.5938 17.7023 19.5938 18.375C19.5938 19.0477 19.0477 19.5938 18.375 19.5938Z" fill="#8C8C8C"/>
</svg>
