<svg width="19" height="20" viewBox="0 0 19 20" fill="none" xmlns="http://www.w3.org/2000/svg">
<path d="M18.3117 4.87422L14.5008 1.06328C14.325 0.8875 14.1094 0.758594 13.875 0.688281V0.625H0.75C0.335156 0.625 0 0.960156 0 1.375V18.625C0 19.0398 0.335156 19.375 0.75 19.375H18C18.4148 19.375 18.75 19.0398 18.75 18.625V5.93359C18.75 5.53516 18.593 5.15547 18.3117 4.87422ZM6.375 2.3125H12.375V4.75H6.375V2.3125ZM17.0625 17.6875H1.6875V2.3125H4.875V5.5C4.875 5.91484 5.21016 6.25 5.625 6.25H13.125C13.5398 6.25 13.875 5.91484 13.875 5.5V2.82344L17.0625 6.01094V17.6875ZM9.375 8.35938C7.51172 8.35938 6 9.87109 6 11.7344C6 13.5977 7.51172 15.1094 9.375 15.1094C11.2383 15.1094 12.75 13.5977 12.75 11.7344C12.75 9.87109 11.2383 8.35938 9.375 8.35938ZM9.375 13.6094C8.33906 13.6094 7.5 12.7703 7.5 11.7344C7.5 10.6984 8.33906 9.85938 9.375 9.85938C10.4109 9.85938 11.25 10.6984 11.25 11.7344C11.25 12.7703 10.4109 13.6094 9.375 13.6094Z" fill="#8C8C8C"/>
</svg>
