<svg width="18" height="20" viewBox="0 0 18 20" fill="none" xmlns="http://www.w3.org/2000/svg">
<path d="M14.375 13.5625C13.707 13.5625 13.0906 13.7969 12.6078 14.1883L7.75156 10.675C7.83288 10.2287 7.83288 9.77133 7.75156 9.325L12.6078 5.81172C13.0906 6.20312 13.707 6.4375 14.375 6.4375C15.9266 6.4375 17.1875 5.17656 17.1875 3.625C17.1875 2.07344 15.9266 0.8125 14.375 0.8125C12.8234 0.8125 11.5625 2.07344 11.5625 3.625C11.5625 3.89687 11.6 4.15703 11.6727 4.40547L7.06016 7.74531C6.37578 6.83828 5.28828 6.25 4.0625 6.25C1.99062 6.25 0.3125 7.92812 0.3125 10C0.3125 12.0719 1.99062 13.75 4.0625 13.75C5.28828 13.75 6.37578 13.1617 7.06016 12.2547L11.6727 15.5945C11.6 15.843 11.5625 16.1055 11.5625 16.375C11.5625 17.9266 12.8234 19.1875 14.375 19.1875C15.9266 19.1875 17.1875 17.9266 17.1875 16.375C17.1875 14.8234 15.9266 13.5625 14.375 13.5625ZM14.375 2.40625C15.0477 2.40625 15.5938 2.95234 15.5938 3.625C15.5938 4.29766 15.0477 4.84375 14.375 4.84375C13.7023 4.84375 13.1562 4.29766 13.1562 3.625C13.1562 2.95234 13.7023 2.40625 14.375 2.40625ZM4.0625 12.0625C2.92578 12.0625 2 11.1367 2 10C2 8.86328 2.92578 7.9375 4.0625 7.9375C5.19922 7.9375 6.125 8.86328 6.125 10C6.125 11.1367 5.19922 12.0625 4.0625 12.0625ZM14.375 17.5938C13.7023 17.5938 13.1562 17.0477 13.1562 16.375C13.1562 15.7023 13.7023 15.1562 14.375 15.1562C15.0477 15.1562 15.5938 15.7023 15.5938 16.375C15.5938 17.0477 15.0477 17.5938 14.375 17.5938Z" fill="#8C8C8C"/>
</svg>
